<svg width="1024" height="1024" viewBox="0 0 192 192" xmlns="http://www.w3.org/2000/svg">
  <rect width="192" height="192" fill="#1A1A2E"/>
  <!-- Tick marks around outside (12 ticks like a clock) -->
  <g stroke="#3A3A5A" stroke-width="3" stroke-linecap="round">
    <line x1="96" y1="10" x2="96" y2="22" transform="rotate(0 96 96)"/>
    <line x1="96" y1="10" x2="96" y2="22" transform="rotate(30 96 96)"/>
    <line x1="96" y1="10" x2="96" y2="22" transform="rotate(60 96 96)"/>
    <line x1="96" y1="10" x2="96" y2="22" transform="rotate(90 96 96)"/>
    <line x1="96" y1="10" x2="96" y2="22" transform="rotate(120 96 96)"/>
    <line x1="96" y1="10" x2="96" y2="22" transform="rotate(150 96 96)"/>
    <line x1="96" y1="10" x2="96" y2="22" transform="rotate(180 96 96)"/>
    <line x1="96" y1="10" x2="96" y2="22" transform="rotate(210 96 96)"/>
    <line x1="96" y1="10" x2="96" y2="22" transform="rotate(240 96 96)"/>
    <line x1="96" y1="10" x2="96" y2="22" transform="rotate(270 96 96)"/>
    <line x1="96" y1="10" x2="96" y2="22" transform="rotate(300 96 96)"/>
    <line x1="96" y1="10" x2="96" y2="22" transform="rotate(330 96 96)"/>
  </g>
  <!-- Track ring -->
  <circle cx="96" cy="96" r="58" fill="none" stroke="#2A2A4A" stroke-width="10" stroke-linecap="round"/>
  <!-- 90% progress arc: circ = 364.42, 90% = 327.98 -->
  <circle cx="96" cy="96" r="58" fill="none" stroke="#10B981" stroke-width="10" stroke-linecap="round"
    stroke-dasharray="327.98 364.42"
    stroke-dashoffset="0"
    transform="rotate(-90 96 96)"/>
  <!-- Bold S -->
  <text x="96" y="96" text-anchor="middle" dominant-baseline="central"
    font-family="Inter, -apple-system, BlinkMacSystemFont, 'Segoe UI', sans-serif"
    font-size="62" font-weight="800" fill="#FFFFFF">S</text>
</svg>
